<?xml version="1.0" encoding="UTF-8"?>
<!DOCTYPE svg PUBLIC "-//W3C//DTD SVG 1.1//EN" "http://www.w3.org/Graphics/SVG/1.1/DTD/svg11.dtd">
<svg xmlns="http://www.w3.org/2000/svg" version="1.1" width="1388px" height="226px" style="shape-rendering:geometricPrecision; text-rendering:geometricPrecision; image-rendering:optimizeQuality; fill-rule:evenodd; clip-rule:evenodd" xmlns:xlink="http://www.w3.org/1999/xlink">
<g><path style="opacity:1" fill="#fefefe" d="M -0.5,-0.5 C 462.167,-0.5 924.833,-0.5 1387.5,-0.5C 1387.5,74.8333 1387.5,150.167 1387.5,225.5C 924.833,225.5 462.167,225.5 -0.5,225.5C -0.5,150.167 -0.5,74.8333 -0.5,-0.5 Z"/></g>
<g><path style="opacity:1" fill="#5d54ea" d="M 211.5,18.5 C 219.187,16.996 225.687,18.996 231,24.5C 234.753,40.0862 228.586,46.9195 212.5,45C 203.938,41.7112 200.771,35.5446 203,26.5C 205.157,23.0241 207.99,20.3575 211.5,18.5 Z"/></g>
<g><path style="opacity:1" fill="#5d54ea" d="M 910.5,18.5 C 918.226,16.9924 924.726,18.9924 930,24.5C 934.077,37.3496 929.41,44.3496 916,45.5C 905.394,44.2186 900.728,38.2186 902,27.5C 904.025,23.6443 906.858,20.6443 910.5,18.5 Z"/></g>
<g><path style="opacity:1" fill="#6056ea" d="M 1143.5,18.5 C 1151.32,17.3336 1157.82,19.6669 1163,25.5C 1165.36,40.476 1158.86,46.976 1143.5,45C 1134.94,41.7112 1131.77,35.5446 1134,26.5C 1136.36,22.7553 1139.53,20.0886 1143.5,18.5 Z"/></g>
<g><path style="opacity:1" fill="#8078ee" d="M 652.5,25.5 C 643.749,25.1968 635.082,25.5301 626.5,26.5C 630.445,25.1745 634.778,24.5079 639.5,24.5C 644.013,24.5009 648.347,24.8343 652.5,25.5 Z"/></g>
<g><path style="opacity:1" fill="#5e54ea" d="M 53.5,25.5 C 76.8333,25.5 100.167,25.5 123.5,25.5C 123.5,32.8333 123.5,40.1667 123.5,47.5C 116.833,47.5 110.167,47.5 103.5,47.5C 103.5,69.1667 103.5,90.8333 103.5,112.5C 93.5,112.5 83.5,112.5 73.5,112.5C 73.5,90.8333 73.5,69.1667 73.5,47.5C 66.8333,47.5 60.1667,47.5 53.5,47.5C 53.5,40.1667 53.5,32.8333 53.5,25.5 Z"/></g>
<g><path style="opacity:1" fill="#584fea" d="M 242.5,25.5 C 251.833,25.5 261.167,25.5 270.5,25.5C 270.5,54.5 270.5,83.5 270.5,112.5C 261.167,112.5 251.833,112.5 242.5,112.5C 242.5,83.5 242.5,54.5 242.5,25.5 Z"/></g>
<g><path style="opacity:1" fill="#5950ea" d="M 538.5,25.5 C 547.833,25.5 557.167,25.5 566.5,25.5C 566.5,54.5 566.5,83.5 566.5,112.5C 557.833,112.5 549.167,112.5 540.5,112.5C 540.778,110.654 540.111,109.32 538.5,108.5C 522.575,118.132 508.408,116.132 496,102.5C 489.469,89.4775 488.803,76.1441 494,62.5C 504.869,45.4106 519.369,41.7439 537.5,51.5C 538.498,42.8589 538.831,34.1922 538.5,25.5 Z"/></g>
<g><path style="opacity:1" fill="#5a51ea" d="M 652.5,25.5 C 654.655,25.372 656.655,25.872 658.5,27C 660.127,29.7542 661.627,32.5875 663,35.5C 671.932,60.7957 680.765,86.1291 689.5,111.5C 679.517,112.666 669.517,112.832 659.5,112C 658.058,107.989 656.058,104.322 653.5,101C 646.06,100.072 638.726,100.406 631.5,102C 629.181,104.803 627.515,107.97 626.5,111.5C 616.5,112.833 606.5,112.833 596.5,111.5C 606.509,83.1383 616.509,54.805 626.5,26.5C 635.082,25.5301 643.749,25.1968 652.5,25.5 Z"/></g>
<g><path style="opacity:1" fill="#b6b2f5" d="M 891.5,25.5 C 882.167,25.5 872.833,25.5 863.5,25.5C 863.5,54.5 863.5,83.5 863.5,112.5C 862.502,83.3381 862.169,54.0047 862.5,24.5C 872.348,24.1729 882.014,24.5062 891.5,25.5 Z"/></g>
<g><path style="opacity:1" fill="#5c53ea" d="M 891.5,25.5 C 891.5,54.5 891.5,83.5 891.5,112.5C 882.167,112.5 872.833,112.5 863.5,112.5C 863.5,83.5 863.5,54.5 863.5,25.5C 872.833,25.5 882.167,25.5 891.5,25.5 Z"/></g>
<g><path style="opacity:1" fill="#5b52ea" d="M 1086.5,31.5 C 1095.52,31.1685 1104.52,31.5018 1113.5,32.5C 1113.81,33.3081 1114.31,33.9747 1115,34.5C 1115.5,38.8206 1115.67,43.1539 1115.5,47.5C 1119.83,47.5 1124.17,47.5 1128.5,47.5C 1128.5,54.5 1128.5,61.5 1128.5,68.5C 1124.19,69.0802 1119.86,69.4135 1115.5,69.5C 1115.33,75.5092 1115.5,81.5092 1116,87.5C 1118.59,91.0482 1122.09,92.3815 1126.5,91.5C 1127.12,98.8174 1127.45,106.151 1127.5,113.5C 1119.18,114.291 1110.84,114.458 1102.5,114C 1094,112.167 1088.83,107 1087,98.5C 1086.5,88.8391 1086.33,79.1724 1086.5,69.5C 1083.52,69.0371 1080.52,68.7038 1077.5,68.5C 1077.5,61.5 1077.5,54.5 1077.5,47.5C 1080.5,47.5 1083.5,47.5 1086.5,47.5C 1086.5,42.1667 1086.5,36.8333 1086.5,31.5 Z"/></g>
<g><path style="opacity:1" fill="#5c52ea" d="M 146.5,46.5 C 159.557,44.9283 171.891,47.095 183.5,53C 187.456,55.9623 190.289,59.7956 192,64.5C 192.5,80.8299 192.667,97.1633 192.5,113.5C 184.493,113.666 176.493,113.5 168.5,113C 167.275,111.437 165.775,110.27 164,109.5C 152.731,116.297 141.564,116.13 130.5,109C 124.886,102.515 123.052,95.0153 125,86.5C 126.779,82.3882 129.612,79.2215 133.5,77C 143.52,74.896 153.52,72.7294 163.5,70.5C 161.431,66.8808 158.264,65.2142 154,65.5C 147.28,66.3049 140.78,67.9716 134.5,70.5C 131.259,64.7858 128.592,58.7858 126.5,52.5C 133.326,50.6659 139.992,48.6659 146.5,46.5 Z"/></g>
<g><path style="opacity:1" fill="#5b52ea" d="M 307.5,46.5 C 321.292,44.8443 333.626,48.1777 344.5,56.5C 353.128,65.4271 356.295,76.0938 354,88.5C 348.942,104.287 338.108,112.787 321.5,114C 296.919,116.573 282.586,105.74 278.5,81.5C 279.851,62.825 289.518,51.1583 307.5,46.5 Z"/></g>
<g><path style="opacity:1" fill="#5a51ea" d="M 390.5,84.5 C 389.506,93.6517 389.173,102.985 389.5,112.5C 380.167,112.5 370.833,112.5 361.5,112.5C 361.5,91.1667 361.5,69.8333 361.5,48.5C 371.167,48.5 380.833,48.5 390.5,48.5C 390.34,50.1992 390.506,51.8659 391,53.5C 394.416,51.208 397.916,49.0414 401.5,47C 410.262,44.2614 413.928,47.428 412.5,56.5C 411.967,62.1582 411.634,67.8249 411.5,73.5C 406.528,72.5784 401.528,72.4117 396.5,73C 392.773,75.9545 390.773,79.7879 390.5,84.5 Z"/></g>
<g><path style="opacity:1" fill="#5c53ea" d="M 485.5,84.5 C 471.395,86.1281 457.061,87.1281 442.5,87.5C 442.624,88.1067 442.957,88.44 443.5,88.5C 446.249,92.4587 450.082,94.4587 455,94.5C 461.076,93.6893 466.909,92.0226 472.5,89.5C 476.515,93.6852 480.182,98.1852 483.5,103C 468.091,115.112 451.091,117.778 432.5,111C 417.442,102.535 411.609,89.7015 415,72.5C 418.644,58.2285 427.811,49.7285 442.5,47C 456.681,44.7484 468.847,48.5817 479,58.5C 484.607,66.2608 486.774,74.9275 485.5,84.5 Z"/></g>
<g><path style="opacity:1" fill="#5c52ea" d="M 722.5,134.5 C 713.167,134.5 703.833,134.5 694.5,134.5C 694.5,105.833 694.5,77.1667 694.5,48.5C 703.192,48.1686 711.859,48.502 720.5,49.5C 721,50.5 721.5,51.5 722,52.5C 737.322,43.242 751.322,44.9087 764,57.5C 775.311,76.0812 773.478,93.2479 758.5,109C 753.315,111.837 747.815,113.67 742,114.5C 735.437,113.4 728.937,112.067 722.5,110.5C 722.5,118.5 722.5,126.5 722.5,134.5 Z"/></g>
<g><path style="opacity:1" fill="#5b52ea" d="M 807.5,109.5 C 806.507,117.65 806.174,125.983 806.5,134.5C 797.167,134.5 787.833,134.5 778.5,134.5C 778.5,105.833 778.5,77.1667 778.5,48.5C 786.833,48.5 795.167,48.5 803.5,48.5C 804.659,49.4558 805.826,50.4558 807,51.5C 822.75,43.1478 836.75,45.4811 849,58.5C 856.931,71.7365 857.597,85.4031 851,99.5C 843.25,111.982 832.084,116.482 817.5,113C 814.101,111.923 810.767,110.756 807.5,109.5 Z"/></g>
<g><path style="opacity:1" fill="#5b52ea" d="M 1071.5,68.5 C 1072.15,83.5381 1071.48,98.2048 1069.5,112.5C 1062.85,113.307 1056.18,113.474 1049.5,113C 1047.17,111.833 1044.83,110.667 1042.5,109.5C 1030.53,116.655 1019.03,115.988 1008,107.5C 998.271,90.4688 1002.77,79.3021 1021.5,74C 1028.87,73.4963 1036.21,72.663 1043.5,71.5C 1041.2,67.1787 1037.53,65.1787 1032.5,65.5C 1025.63,66.5222 1018.96,68.0222 1012.5,70C 1010.27,64.4762 1007.94,58.9762 1005.5,53.5C 1023.94,44.7531 1042.61,44.2531 1061.5,52C 1067.28,56.0708 1070.61,61.5708 1071.5,68.5 Z"/></g>
<g><path style="opacity:1" fill="#5b52ea" d="M 1198.5,46.5 C 1214.14,44.5463 1227.64,48.8797 1239,59.5C 1246.17,70.3912 1247.51,82.0578 1243,94.5C 1237.22,105.592 1228.05,112.092 1215.5,114C 1198.13,117.103 1184.29,111.603 1174,97.5C 1164.54,71.7656 1172.7,54.7656 1198.5,46.5 Z"/></g>
<g><path style="opacity:1" fill="#5c52ea" d="M 1293.5,46.5 C 1301.3,45.7833 1308.63,47.2833 1315.5,51C 1319.95,54.3969 1322.45,58.8969 1323,64.5C 1323.5,80.4965 1323.67,96.4965 1323.5,112.5C 1313.83,112.5 1304.17,112.5 1294.5,112.5C 1294.67,99.4957 1294.5,86.4957 1294,73.5C 1289.58,67.9135 1285.58,68.2469 1282,74.5C 1281.5,87.1623 1281.33,99.8289 1281.5,112.5C 1271.83,112.5 1262.17,112.5 1252.5,112.5C 1252.5,91.1667 1252.5,69.8333 1252.5,48.5C 1262.17,48.5 1271.83,48.5 1281.5,48.5C 1281.34,50.5273 1281.5,52.5273 1282,54.5C 1285.46,51.1945 1289.3,48.5279 1293.5,46.5 Z"/></g>
<g><path style="opacity:1" fill="#5d53ea" d="M 967.5,46.5 C 976.236,47.0152 984.903,48.1819 993.5,50C 994.333,50.8333 995.167,51.6667 996,52.5C 995.353,59.0702 994.186,65.5702 992.5,72C 989.076,71.6395 985.742,70.6395 982.5,69C 973.694,67.7294 968.36,71.396 966.5,80C 968.408,89.2129 974.074,92.8796 983.5,91C 986.208,89.9305 988.875,88.7639 991.5,87.5C 992.086,87.7093 992.586,88.0426 993,88.5C 995.642,95.3628 996.476,102.363 995.5,109.5C 994.335,110.584 993.002,111.417 991.5,112C 973.03,118.539 957.196,114.706 944,100.5C 933.335,80.3796 937.168,63.8796 955.5,51C 959.54,49.3091 963.54,47.8091 967.5,46.5 Z"/></g>
<g><path style="opacity:1" fill="#584fea" d="M 203.5,48.5 C 212.833,48.5 222.167,48.5 231.5,48.5C 231.5,69.8333 231.5,91.1667 231.5,112.5C 222.167,112.5 212.833,112.5 203.5,112.5C 203.5,91.1667 203.5,69.8333 203.5,48.5 Z"/></g>
<g><path style="opacity:1" fill="#958ef1" d="M 694.5,48.5 C 694.5,77.1667 694.5,105.833 694.5,134.5C 703.833,134.5 713.167,134.5 722.5,134.5C 713.014,135.494 703.348,135.827 693.5,135.5C 693.169,106.329 693.502,77.3285 694.5,48.5 Z"/></g>
<g><path style="opacity:1" fill="#a39df3" d="M 803.5,48.5 C 795.167,48.5 786.833,48.5 778.5,48.5C 778.5,77.1667 778.5,105.833 778.5,134.5C 787.833,134.5 797.167,134.5 806.5,134.5C 806.174,125.983 806.507,117.65 807.5,109.5C 807.5,118.167 807.5,126.833 807.5,135.5C 797.5,135.5 787.5,135.5 777.5,135.5C 777.5,106.167 777.5,76.8333 777.5,47.5C 786.349,47.1736 795.016,47.507 803.5,48.5 Z"/></g>
<g><path style="opacity:1" fill="#5d54ea" d="M 902.5,48.5 C 912.167,48.5 921.833,48.5 931.5,48.5C 931.5,69.8333 931.5,91.1667 931.5,112.5C 921.833,112.5 912.167,112.5 902.5,112.5C 902.5,91.1667 902.5,69.8333 902.5,48.5 Z"/></g>
<g><path style="opacity:1" fill="#9a94f2" d="M 1162.5,112.5 C 1162.5,91.1667 1162.5,69.8333 1162.5,48.5C 1153.5,48.5 1144.5,48.5 1135.5,48.5C 1135.5,69.8333 1135.5,91.1667 1135.5,112.5C 1134.5,91.0064 1134.17,69.3398 1134.5,47.5C 1144.17,47.5 1153.83,47.5 1163.5,47.5C 1163.83,69.3398 1163.5,91.0064 1162.5,112.5 Z"/></g>
<g><path style="opacity:1" fill="#584fea" d="M 1162.5,112.5 C 1153.5,112.5 1144.5,112.5 1135.5,112.5C 1135.5,91.1667 1135.5,69.8333 1135.5,48.5C 1144.5,48.5 1153.5,48.5 1162.5,48.5C 1162.5,69.8333 1162.5,91.1667 1162.5,112.5 Z"/></g>
<g><path style="opacity:1" fill="#eeedfc" d="M 641.5,55.5 C 642.586,55.62 643.253,56.2867 643.5,57.5C 645.346,64.5505 647.346,71.5505 649.5,78.5C 649,78.8333 648.5,79.1667 648,79.5C 644.239,78.3809 640.406,77.7143 636.5,77.5C 638.164,70.1727 639.831,62.8394 641.5,55.5 Z"/></g>
<g><path style="opacity:1" fill="#eae8fb" d="M 448.5,64.5 C 454.495,63.8281 457.829,66.4948 458.5,72.5C 453.125,72.8282 447.792,72.4948 442.5,71.5C 443.098,70.2054 443.598,68.8721 444,67.5C 445.652,66.6006 447.152,65.6006 448.5,64.5 Z"/></g>
<g><path style="opacity:1" fill="#f6f4fe" d="M 314.5,68.5 C 322.068,68.568 325.734,72.4014 325.5,80C 326.021,86.641 323.021,90.4743 316.5,91.5C 310.542,90.8698 307.875,87.5365 308.5,81.5C 307.98,75.7771 309.98,71.4437 314.5,68.5 Z"/></g>
<g><path style="opacity:1" fill="#f6f5fe" d="M 526.5,68.5 C 536.63,69.0708 540.797,74.4042 539,84.5C 535.578,91.2957 530.411,93.129 523.5,90C 516.159,81.5531 517.159,74.3865 526.5,68.5 Z"/></g>
<g><path style="opacity:1" fill="#f7f5fe" d="M 726.5,69.5 C 737.59,67.7606 742.757,72.4273 742,83.5C 739.408,89.5442 734.908,92.0442 728.5,91C 722.092,87.6772 719.925,82.5105 722,75.5C 723.332,73.34 724.832,71.34 726.5,69.5 Z"/></g>
<g><path style="opacity:1" fill="#f6f4fe" d="M 813.5,68.5 C 824.615,69.7139 828.448,75.7139 825,86.5C 821.1,91.5333 816.267,92.7 810.5,90C 803.159,81.5531 804.159,74.3865 813.5,68.5 Z"/></g>
<g><path style="opacity:1" fill="#f6f5fe" d="M 1204.5,68.5 C 1214.81,69.6584 1218.64,75.3251 1216,85.5C 1213.65,90.4264 1209.81,92.2598 1204.5,91C 1196.55,83.502 1196.55,76.002 1204.5,68.5 Z"/></g>
<g><path style="opacity:1" fill="#efeefc" d="M 1040.5,85.5 C 1041.5,85.5 1042.5,85.5 1043.5,85.5C 1044.01,88.1761 1044.17,90.8428 1044,93.5C 1039.2,97.9385 1035.36,97.1052 1032.5,91C 1035.03,88.9073 1037.7,87.074 1040.5,85.5 Z"/></g>
<g><path style="opacity:1" fill="#eeedfc" d="M 156.5,86.5 C 164.958,85.1243 167.291,88.1243 163.5,95.5C 160.301,96.7994 157.135,96.7994 154,95.5C 151.915,91.6749 152.748,88.6749 156.5,86.5 Z"/></g>
<g><path style="opacity:1" fill="#817aee" d="M 485.5,84.5 C 485.5,85.5 485.5,86.5 485.5,87.5C 471.323,87.1709 457.323,87.5042 443.5,88.5C 442.957,88.44 442.624,88.1067 442.5,87.5C 457.061,87.1281 471.395,86.1281 485.5,84.5 Z"/></g>
<g><path style="opacity:1" fill="#8f88f0" d="M 1071.5,68.5 C 1072.5,83.324 1072.83,98.324 1072.5,113.5C 1071.21,113.737 1070.21,113.404 1069.5,112.5C 1071.48,98.2048 1072.15,83.5381 1071.5,68.5 Z"/></g>
<g><path style="opacity:1" fill="#9f99f2" d="M 390.5,84.5 C 390.5,94.1667 390.5,103.833 390.5,113.5C 380.652,113.827 370.986,113.494 361.5,112.5C 370.833,112.5 380.167,112.5 389.5,112.5C 389.173,102.985 389.506,93.6517 390.5,84.5 Z"/></g>
<g><path style="opacity:1" fill="#6a62ec" d="M 972.5,160.5 C 979.004,160.138 980.671,162.638 977.5,168C 970.739,168.751 969.073,166.251 972.5,160.5 Z"/></g>
<g><path style="opacity:1" fill="#6c63ec" d="M 493.5,160.5 C 495.669,162.34 497.002,164.674 497.5,167.5C 488.707,169.31 487.374,166.976 493.5,160.5 Z"/></g>
<g><path style="opacity:1" fill="#675eeb" d="M 200.5,162.5 C 203.167,162.5 205.833,162.5 208.5,162.5C 208.259,168.501 205.759,169.834 201,166.5C 200.51,165.207 200.343,163.873 200.5,162.5 Z"/></g>
<g><path style="opacity:1" fill="#6b62ec" d="M 620.5,161.5 C 622.861,161.674 625.194,162.007 627.5,162.5C 628.265,167.906 625.931,169.906 620.5,168.5C 620.5,166.167 620.5,163.833 620.5,161.5 Z"/></g>
<g><path style="opacity:1" fill="#665eeb" d="M 83.5,166.5 C 83.5,168.833 83.5,171.167 83.5,173.5C 84.791,173.737 85.791,173.404 86.5,172.5C 90.1817,172.335 93.8484,172.501 97.5,173C 99.286,173.785 100.786,174.951 102,176.5C 103.438,184.723 103.938,193.057 103.5,201.5C 100.833,201.5 98.1667,201.5 95.5,201.5C 95.6662,195.158 95.4995,188.825 95,182.5C 94.2421,180.09 92.5754,179.09 90,179.5C 86.9397,179.225 84.9397,180.558 84,183.5C 83.5006,189.157 83.3339,194.824 83.5,200.5C 80.8333,200.5 78.1667,200.5 75.5,200.5C 75.5,188.167 75.5,175.833 75.5,163.5C 78.1667,163.5 80.8333,163.5 83.5,163.5C 83.5,164.5 83.5,165.5 83.5,166.5 Z"/></g>
<g><path style="opacity:1" fill="#6158ea" d="M 466.5,163.5 C 469.167,163.5 471.833,163.5 474.5,163.5C 474.5,175.833 474.5,188.167 474.5,200.5C 471.833,200.5 469.167,200.5 466.5,200.5C 466.5,188.167 466.5,175.833 466.5,163.5 Z"/></g>
<g><path style="opacity:1" fill="#a19cf2" d="M 853.5,173.5 C 852.521,170.375 852.187,167.042 852.5,163.5C 850.5,163.5 848.5,163.5 846.5,163.5C 846.5,175.833 846.5,188.167 846.5,200.5C 848.833,200.5 851.167,200.5 853.5,200.5C 851.052,201.473 848.385,201.806 845.5,201.5C 845.5,188.5 845.5,175.5 845.5,162.5C 848.167,162.5 850.833,162.5 853.5,162.5C 853.5,166.167 853.5,169.833 853.5,173.5 Z"/></g>
<g><path style="opacity:1" fill="#5c53ea" d="M 853.5,173.5 C 858.149,172.705 862.816,172.539 867.5,173C 870,174.167 871.833,176 873,178.5C 873.5,185.826 873.666,193.159 873.5,200.5C 870.833,200.5 868.167,200.5 865.5,200.5C 865.666,194.491 865.499,188.491 865,182.5C 864.242,180.09 862.575,179.09 860,179.5C 856.94,179.225 854.94,180.558 854,183.5C 853.501,189.157 853.334,194.824 853.5,200.5C 851.167,200.5 848.833,200.5 846.5,200.5C 846.5,188.167 846.5,175.833 846.5,163.5C 848.5,163.5 850.5,163.5 852.5,163.5C 852.187,167.042 852.521,170.375 853.5,173.5 Z"/></g>
<g><path style="opacity:1" fill="#645beb" d="M 41.5,164.5 C 47.9983,164.082 54.3316,164.748 60.5,166.5C 60.528,168.582 59.8613,170.416 58.5,172C 54.9714,172.622 51.4714,172.455 48,171.5C 41.9253,172.39 41.0919,174.89 45.5,179C 51.1571,179.991 55.9904,182.491 60,186.5C 62.7067,192.597 61.2067,197.43 55.5,201C 48.269,203.357 41.269,202.857 34.5,199.5C 33.1135,197.046 33.6135,195.046 36,193.5C 40.7332,195.113 45.5665,195.613 50.5,195C 51.5,194 52.5,193 53.5,192C 52.5,191 51.5,190 50.5,189C 43.7807,188.23 38.6141,185.063 35,179.5C 32.2383,172.357 34.405,167.357 41.5,164.5 Z"/></g>
<g><path style="opacity:1" fill="#655deb" d="M 811.5,164.5 C 817.969,164.151 824.302,164.817 830.5,166.5C 830.167,168.5 829.833,170.5 829.5,172.5C 824.828,171.997 820.161,171.831 815.5,172C 811.5,174.333 811.5,176.667 815.5,179C 821.727,179.959 826.894,182.793 831,187.5C 833.007,194.97 830.174,199.803 822.5,202C 816.197,203.143 810.197,202.31 804.5,199.5C 803.769,197.599 803.769,195.599 804.5,193.5C 809.783,194.725 815.117,195.225 820.5,195C 824.325,193.232 824.325,191.232 820.5,189C 816.021,187.729 811.688,186.062 807.5,184C 803.87,180.95 802.703,177.117 804,172.5C 806.028,169.308 808.528,166.641 811.5,164.5 Z"/></g>
<g><path style="opacity:1" fill="#655deb" d="M 1115.5,164.5 C 1121.89,163.791 1127.89,164.957 1133.5,168C 1135.84,171.263 1134.84,173.43 1130.5,174.5C 1126.4,172.296 1122.07,171.462 1117.5,172C 1110.4,176.438 1108.57,182.605 1112,190.5C 1114.02,193.59 1116.85,195.257 1120.5,195.5C 1124.21,194.654 1127.71,193.321 1131,191.5C 1133.57,192.378 1134.9,194.044 1135,196.5C 1127.18,203.454 1118.68,204.287 1109.5,199C 1099.71,189.569 1099.04,179.569 1107.5,169C 1110.1,167.205 1112.77,165.705 1115.5,164.5 Z"/></g>
<g><path style="opacity:1" fill="#6359ea" d="M 345.5,165.5 C 349.31,165.379 352.477,166.712 355,169.5C 360.192,179.918 364.692,190.584 368.5,201.5C 366.143,201.663 363.81,201.497 361.5,201C 359.595,199.185 357.928,197.185 356.5,195C 351.5,193 346.5,193 341.5,195C 340.072,197.185 338.405,199.185 336.5,201C 334.098,201.814 331.765,201.647 329.5,200.5C 334.46,188.601 339.793,176.934 345.5,165.5 Z"/></g>
<g><path style="opacity:1" fill="#655bea" d="M 591.5,169.5 C 593.833,169.5 596.167,169.5 598.5,169.5C 597.735,174.906 600.069,176.906 605.5,175.5C 606.498,181.167 604.164,183.501 598.5,182.5C 597.168,190.527 600.168,196.193 607.5,199.5C 602.631,203.461 597.798,203.461 593,199.5C 590.987,194.388 589.987,189.055 590,183.5C 588.166,182.505 586.999,181.005 586.5,179C 587.556,175.462 589.222,172.296 591.5,169.5 Z"/></g>
<g><path style="opacity:1" fill="#b3aef5" d="M 83.5,166.5 C 83.9397,168.844 84.9397,170.844 86.5,172.5C 85.791,173.404 84.791,173.737 83.5,173.5C 83.5,171.167 83.5,168.833 83.5,166.5 Z"/></g>
<g><path style="opacity:1" fill="#635beb" d="M 123.5,172.5 C 127.514,172.334 131.514,172.501 135.5,173C 138.973,173.807 141.14,175.973 142,179.5C 142.5,186.492 142.666,193.492 142.5,200.5C 135.878,201.771 129.212,202.271 122.5,202C 115.904,198.086 114.904,193.086 119.5,187C 123.884,184.792 128.551,183.959 133.5,184.5C 133.671,182.007 132.671,180.174 130.5,179C 127.129,178.256 123.963,178.756 121,180.5C 119.581,178.664 118.414,176.664 117.5,174.5C 119.631,173.831 121.631,173.165 123.5,172.5 Z"/></g>
<g><path style="opacity:1" fill="#6258ea" d="M 168.5,201.5 C 167.791,200.596 166.791,200.263 165.5,200.5C 165.5,202.833 165.5,205.167 165.5,207.5C 165.5,208.833 165.5,210.167 165.5,211.5C 163.167,211.5 160.833,211.5 158.5,211.5C 158.171,198.656 158.505,185.989 159.5,173.5C 165.822,172.723 172.155,172.556 178.5,173C 182.333,174.167 184.833,176.667 186,180.5C 190.325,196.326 184.492,203.326 168.5,201.5 Z"/></g>
<g><path style="opacity:1" fill="#655deb" d="M 230.5,172.5 C 235.511,172.334 240.511,172.501 245.5,173C 247.624,174.122 249.457,175.622 251,177.5C 252.396,185.08 252.896,192.747 252.5,200.5C 249.833,200.5 247.167,200.5 244.5,200.5C 244.666,194.824 244.499,189.157 244,183.5C 240.095,178.205 236.429,178.538 233,184.5C 232.501,189.823 232.334,195.156 232.5,200.5C 229.833,200.5 227.167,200.5 224.5,200.5C 224.5,191.5 224.5,182.5 224.5,173.5C 226.735,173.795 228.735,173.461 230.5,172.5 Z"/></g>
<g><path style="opacity:1" fill="#6158ea" d="M 273.5,172.5 C 280.827,172.944 288.16,173.277 295.5,173.5C 295.666,183.506 295.5,193.506 295,203.5C 291.942,210.366 286.609,213.366 279,212.5C 274.125,213.302 270.292,211.802 267.5,208C 267.645,207.228 267.978,206.561 268.5,206C 273.833,205.667 279.167,205.333 284.5,205C 285.5,203.333 286.5,201.667 287.5,200C 271.562,202.97 264.395,196.47 266,180.5C 268.028,177.308 270.528,174.641 273.5,172.5 Z"/></g>
<g><path style="opacity:1" fill="#655deb" d="M 388.5,172.5 C 401.059,169.575 408.392,174.409 410.5,187C 408.697,200.075 401.363,204.908 388.5,201.5C 388.5,204.833 388.5,208.167 388.5,211.5C 385.833,211.5 383.167,211.5 380.5,211.5C 380.5,198.833 380.5,186.167 380.5,173.5C 383.385,173.806 386.052,173.473 388.5,172.5 Z"/></g>
<g><path style="opacity:1" fill="#5f56ea" d="M 431.5,200.5 C 430.521,203.625 430.187,206.958 430.5,210.5C 428.167,210.5 425.833,210.5 423.5,210.5C 423.5,198.5 423.5,186.5 423.5,174.5C 430.25,172.556 437.25,172.056 444.5,173C 449.191,175.371 452.024,179.204 453,184.5C 453.012,199.666 445.846,204.999 431.5,200.5 Z"/></g>
<g><path style="opacity:1" fill="#675eeb" d="M 521.5,171.5 C 528.074,171.412 533.74,173.578 538.5,178C 537.183,179.659 535.517,180.826 533.5,181.5C 522.169,177.108 517.669,180.774 520,192.5C 524.055,196.365 528.222,196.365 532.5,192.5C 534.517,193.174 536.183,194.341 537.5,196C 530.216,204.054 522.383,204.554 514,197.5C 507.372,186.057 509.872,177.39 521.5,171.5 Z"/></g>
<g><path style="opacity:1" fill="#6259ea" d="M 651.5,171.5 C 669.228,172.618 674.394,181.285 667,197.5C 660.766,203.008 653.933,203.841 646.5,200C 637.233,188.561 638.9,179.061 651.5,171.5 Z"/></g>
<g><path style="opacity:1" fill="#6159eb" d="M 711.5,180.5 C 711.5,187.167 711.5,193.833 711.5,200.5C 709.167,200.5 706.833,200.5 704.5,200.5C 704.822,194.642 704.489,188.975 703.5,183.5C 703.044,180.714 701.377,179.381 698.5,179.5C 694.957,179.379 692.957,181.046 692.5,184.5C 691.512,189.64 691.179,194.974 691.5,200.5C 689.167,200.5 686.833,200.5 684.5,200.5C 684.5,191.833 684.5,183.167 684.5,174.5C 685.791,174.737 686.791,174.404 687.5,173.5C 693.797,172.461 700.13,172.294 706.5,173C 709.308,174.793 710.974,177.293 711.5,180.5 Z"/></g>
<g><path style="opacity:1" fill="#665deb" d="M 730.5,172.5 C 736.565,172.261 742.565,172.761 748.5,174C 747.26,179.369 744.093,180.869 739,178.5C 733.206,178.573 732.372,180.406 736.5,184C 740.385,184.739 744.052,186.073 747.5,188C 750.698,194.29 749.031,198.957 742.5,202C 738.5,202.667 734.5,202.667 730.5,202C 723.298,200.987 722.631,198.487 728.5,194.5C 732.787,195.375 737.121,195.708 741.5,195.5C 741.5,194.5 741.5,193.5 741.5,192.5C 735.434,192.034 730.267,189.701 726,185.5C 724.381,179.968 725.881,175.634 730.5,172.5 Z"/></g>
<g><path style="opacity:1" fill="#6960eb" d="M 891.5,172.5 C 896.511,172.334 901.511,172.501 906.5,173C 910.165,174.668 912.332,177.501 913,181.5C 913.5,187.825 913.666,194.158 913.5,200.5C 906.541,201.745 899.541,202.245 892.5,202C 885.904,198.086 884.904,193.086 889.5,187C 894.223,184.765 899.223,183.931 904.5,184.5C 904.579,183.07 904.246,181.736 903.5,180.5C 898.833,179.833 894.167,179.167 889.5,178.5C 888.833,177.167 888.167,175.833 887.5,174.5C 888.949,173.828 890.282,173.161 891.5,172.5 Z"/></g>
<g><path style="opacity:1" fill="#655ceb" d="M 936.5,202.5 C 935.527,204.948 935.194,207.615 935.5,210.5C 933.167,210.5 930.833,210.5 928.5,210.5C 928.5,198.167 928.5,185.833 928.5,173.5C 935.805,172.483 943.139,172.317 950.5,173C 958.019,179.964 959.519,188.13 955,197.5C 953.048,199.894 950.548,201.394 947.5,202C 943.596,202.288 939.929,202.454 936.5,202.5 Z"/></g>
<g><path style="opacity:1" fill="#5f56ea" d="M 1021.5,179.5 C 1021.5,186.5 1021.5,193.5 1021.5,200.5C 1019.17,200.5 1016.83,200.5 1014.5,200.5C 1014.67,194.491 1014.5,188.491 1014,182.5C 1013.24,180.09 1011.58,179.09 1009,179.5C 1006.33,179.167 1004.33,180.167 1003,182.5C 1002.5,188.491 1002.33,194.491 1002.5,200.5C 1000.08,200.292 997.747,200.626 995.5,201.5C 994.502,192.19 994.168,182.857 994.5,173.5C 1001.81,172.585 1009.15,172.418 1016.5,173C 1019.49,174.159 1021.16,176.325 1021.5,179.5 Z"/></g>
<g><path style="opacity:1" fill="#6158ea" d="M 1044.5,172.5 C 1051.49,172.999 1058.49,173.332 1065.5,173.5C 1065.93,184.245 1065.43,194.912 1064,205.5C 1060.85,210.743 1056.18,213.076 1050,212.5C 1045.22,213.026 1041.06,211.693 1037.5,208.5C 1037.83,207.833 1038.17,207.167 1038.5,206.5C 1043.8,205.671 1049.14,205.171 1054.5,205C 1055.74,203.846 1056.74,202.512 1057.5,201C 1051.72,200.127 1046.05,198.794 1040.5,197C 1032.72,187.148 1034.05,178.982 1044.5,172.5 Z"/></g>
<g><path style="opacity:1" fill="#655bea" d="M 1151.5,172.5 C 1167.01,168.56 1174.01,174.394 1172.5,190C 1172.46,193.931 1171.79,197.598 1170.5,201C 1165.83,201.434 1161.16,201.934 1156.5,202.5C 1147.63,201.467 1144.8,196.8 1148,188.5C 1149.21,186.951 1150.71,185.785 1152.5,185C 1156.15,184.501 1159.82,184.335 1163.5,184.5C 1163.53,182.418 1162.86,180.584 1161.5,179C 1157.65,178.413 1153.98,178.746 1150.5,180C 1146.61,176.351 1146.94,173.851 1151.5,172.5 Z"/></g>
<g><path style="opacity:1" fill="#6359ea" d="M 1200.5,172.5 C 1201.83,172.5 1203.17,172.5 1204.5,172.5C 1205.69,177.118 1204.02,179.618 1199.5,180C 1197.95,181.214 1196.78,182.714 1196,184.5C 1195.67,189.833 1195.33,195.167 1195,200.5C 1192.62,201.435 1190.12,201.768 1187.5,201.5C 1187.33,192.827 1187.5,184.16 1188,175.5C 1190.42,173.249 1193.09,172.916 1196,174.5C 1197.88,174.475 1199.38,173.809 1200.5,172.5 Z"/></g>
<g><path style="opacity:1" fill="#645beb" d="M 1223.5,172.5 C 1237.05,170.394 1243.71,176.061 1243.5,189.5C 1237.17,189.5 1230.83,189.5 1224.5,189.5C 1225.56,195.095 1228.89,196.929 1234.5,195C 1237.68,192.951 1240.01,193.784 1241.5,197.5C 1234.24,203.622 1226.74,203.955 1219,198.5C 1215.7,192.958 1214.7,186.958 1216,180.5C 1218.03,177.308 1220.53,174.641 1223.5,172.5 Z"/></g>
<g><path style="opacity:1" fill="#655ceb" d="M 1264.5,172.5 C 1277.48,170.821 1283.82,176.488 1283.5,189.5C 1277.13,189.17 1270.8,189.504 1264.5,190.5C 1265.13,192.258 1266.13,193.758 1267.5,195C 1271.35,195.587 1275.02,195.254 1278.5,194C 1282.82,197.016 1282.49,199.35 1277.5,201C 1268.07,204.635 1260.9,202.135 1256,193.5C 1253.6,184.157 1256.43,177.157 1264.5,172.5 Z"/></g>
<g><path style="opacity:1" fill="#675eeb" d="M 1330.5,172.5 C 1336.04,172.087 1341.37,172.92 1346.5,175C 1346.97,176.299 1346.97,177.799 1346.5,179.5C 1343.63,179.549 1340.79,179.216 1338,178.5C 1332.87,179.4 1332.37,181.233 1336.5,184C 1348.59,184.85 1351.26,190.184 1344.5,200C 1339.77,202.401 1334.77,203.068 1329.5,202C 1324.7,201.305 1323.37,198.805 1325.5,194.5C 1328.72,194.85 1331.89,195.517 1335,196.5C 1337.64,196.349 1339.81,195.349 1341.5,193.5C 1337.52,192.002 1333.52,190.502 1329.5,189C 1322.72,183.132 1323.06,177.632 1330.5,172.5 Z"/></g>
<g><path style="opacity:1" fill="#c1bdf7" d="M 159.5,173.5 C 158.505,185.989 158.171,198.656 158.5,211.5C 157.175,198.661 157.175,185.661 158.5,172.5C 159.107,172.624 159.44,172.957 159.5,173.5 Z"/></g>
<g><path style="opacity:1" fill="#6158ea" d="M 489.5,173.5 C 492.167,173.5 494.833,173.5 497.5,173.5C 497.832,182.525 497.498,191.525 496.5,200.5C 494.298,201.78 492.132,201.78 490,200.5C 489.5,191.506 489.334,182.506 489.5,173.5 Z"/></g>
<g><path style="opacity:1" fill="#645aea" d="M 559.5,172.5 C 564.765,171.571 569.265,172.904 573,176.5C 574.435,184.389 574.935,192.389 574.5,200.5C 569.686,201.244 564.852,201.911 560,202.5C 553.359,203.021 549.526,200.021 548.5,193.5C 548.801,189.029 551.134,186.196 555.5,185C 558.817,184.502 562.15,184.335 565.5,184.5C 565.133,178.844 562.133,177.011 556.5,179C 552.4,181.056 550.734,179.889 551.5,175.5C 554.282,174.484 556.949,173.484 559.5,172.5 Z"/></g>
<g><path style="opacity:1" fill="#6b63ec" d="M 619.5,173.5 C 622.167,173.5 624.833,173.5 627.5,173.5C 627.5,182.833 627.5,192.167 627.5,201.5C 625.167,201.5 622.833,201.5 620.5,201.5C 620.167,192.167 619.833,182.833 619.5,173.5 Z"/></g>
<g><path style="opacity:1" fill="#584fea" d="M 971.5,173.5 C 973.792,173.244 975.959,173.577 978,174.5C 978.5,183.16 978.666,191.827 978.5,200.5C 976.167,200.5 973.833,200.5 971.5,200.5C 971.5,191.5 971.5,182.5 971.5,173.5 Z"/></g>
<g><path style="opacity:1" fill="#6a62ec" d="M 208.5,174.5 C 208.5,183.167 208.5,191.833 208.5,200.5C 206.167,200.5 203.833,200.5 201.5,200.5C 201.5,192.167 201.5,183.833 201.5,175.5C 203.542,173.409 205.875,173.076 208.5,174.5 Z"/></g>
<g><path style="opacity:1" fill="#918bf1" d="M 687.5,173.5 C 686.791,174.404 685.791,174.737 684.5,174.5C 684.5,183.167 684.5,191.833 684.5,200.5C 686.833,200.5 689.167,200.5 691.5,200.5C 691.179,194.974 691.512,189.64 692.5,184.5C 692.5,190.167 692.5,195.833 692.5,201.5C 689.5,201.5 686.5,201.5 683.5,201.5C 683.5,192.167 683.5,182.833 683.5,173.5C 684.833,173.5 686.167,173.5 687.5,173.5 Z"/></g>
<g><path style="opacity:1" fill="#6157ea" d="M 1305.5,189.5 C 1304.52,192.962 1304.19,196.629 1304.5,200.5C 1302.17,200.5 1299.83,200.5 1297.5,200.5C 1297.5,191.5 1297.5,182.5 1297.5,173.5C 1303.17,173.5 1308.83,173.5 1314.5,173.5C 1315.05,177.706 1313.22,180.04 1309,180.5C 1307.26,183.309 1306.09,186.309 1305.5,189.5 Z"/></g>
<g><path style="opacity:1" fill="#eae9fb" d="M 348.5,175.5 C 349.376,175.369 350.043,175.702 350.5,176.5C 351.833,179.833 353.167,183.167 354.5,186.5C 350.893,187.489 347.226,187.823 343.5,187.5C 345.117,183.526 346.783,179.526 348.5,175.5 Z"/></g>
<g><path style="opacity:1" fill="#f1f1fc" d="M 170.5,178.5 C 180.073,180.462 181.906,185.462 176,193.5C 172.801,196.129 169.801,195.796 167,192.5C 165.744,187.142 166.911,182.476 170.5,178.5 Z"/></g>
<g><path style="opacity:1" fill="#f4f3fe" d="M 278.5,178.5 C 286.121,178.946 288.621,182.946 286,190.5C 282,194.5 278,194.5 274,190.5C 272.309,185.131 273.809,181.131 278.5,178.5 Z"/></g>
<g><path style="opacity:1" fill="#f2f2fc" d="M 436.5,178.5 C 442.352,178.188 445.019,181.021 444.5,187C 444.584,191.755 442.25,194.588 437.5,195.5C 431.008,191.931 429.841,186.931 434,180.5C 434.995,179.934 435.828,179.267 436.5,178.5 Z"/></g>
<g><path style="opacity:1" fill="#f5f4fe" d="M 1226.5,178.5 C 1231.17,177.509 1234.51,179.176 1236.5,183.5C 1232.22,184.492 1227.88,184.826 1223.5,184.5C 1223.46,181.911 1224.46,179.911 1226.5,178.5 Z"/></g>
<g><path style="opacity:1" fill="#f4f3fe" d="M 1267.5,178.5 C 1272.21,177.881 1274.87,179.881 1275.5,184.5C 1271.82,184.665 1268.15,184.499 1264.5,184C 1263.55,183.282 1263.38,182.449 1264,181.5C 1265.15,180.364 1266.31,179.364 1267.5,178.5 Z"/></g>
<g><path style="opacity:1" fill="#f5f3fe" d="M 392.5,178.5 C 401.665,180.222 403.832,185.222 399,193.5C 394.442,197.582 391.109,196.582 389,190.5C 387.593,185.599 388.76,181.599 392.5,178.5 Z"/></g>
<g><path style="opacity:1" fill="#f1f1fc" d="M 652.5,179.5 C 655.119,179.232 657.619,179.565 660,180.5C 661.457,184.741 661.791,189.074 661,193.5C 657.117,197.463 653.451,197.13 650,192.5C 649.12,187.821 649.953,183.488 652.5,179.5 Z"/></g>
<g><path style="opacity:1" fill="#f4f3fe" d="M 941.5,178.5 C 946.689,178.688 949.022,181.355 948.5,186.5C 948.396,188.709 948.063,190.876 947.5,193C 944.848,196.063 942.015,196.229 939,193.5C 937.888,191.61 937.054,189.61 936.5,187.5C 937.909,184.349 939.575,181.349 941.5,178.5 Z"/></g>
<g><path style="opacity:1" fill="#f1f0fc" d="M 1048.5,178.5 C 1055.63,178.802 1058.47,182.469 1057,189.5C 1053.56,194.509 1049.56,194.843 1045,190.5C 1044.45,185.992 1045.61,181.992 1048.5,178.5 Z"/></g>
<g><path style="opacity:1" fill="#9c96f2" d="M 208.5,174.5 C 209.493,183.318 209.827,192.318 209.5,201.5C 206.5,201.5 203.5,201.5 200.5,201.5C 200.174,192.651 200.507,183.984 201.5,175.5C 201.5,183.833 201.5,192.167 201.5,200.5C 203.833,200.5 206.167,200.5 208.5,200.5C 208.5,191.833 208.5,183.167 208.5,174.5 Z"/></g>
<g><path style="opacity:1" fill="#9a95f2" d="M 711.5,180.5 C 712.491,187.313 712.825,194.313 712.5,201.5C 709.5,201.5 706.5,201.5 703.5,201.5C 703.5,195.5 703.5,189.5 703.5,183.5C 704.489,188.975 704.822,194.642 704.5,200.5C 706.833,200.5 709.167,200.5 711.5,200.5C 711.5,193.833 711.5,187.167 711.5,180.5 Z"/></g>
<g><path style="opacity:1" fill="#efeefc" d="M 1157.5,189.5 C 1165.8,190.931 1166.3,193.598 1159,197.5C 1153.82,195.52 1153.32,192.854 1157.5,189.5 Z"/></g>
<g><path style="opacity:1" fill="#ecebfc" d="M 126.5,189.5 C 129.673,189.401 132.673,190.068 135.5,191.5C 132.762,197.314 129.095,197.981 124.5,193.5C 125.18,192.14 125.847,190.807 126.5,189.5 Z"/></g>
<g><path style="opacity:1" fill="#eeedfc" d="M 560.5,189.5 C 566.315,190.057 567.315,192.224 563.5,196C 556.03,196.401 555.03,194.234 560.5,189.5 Z"/></g>
<g><path style="opacity:1" fill="#ecebfc" d="M 899.5,189.5 C 902.524,189.175 904.191,190.508 904.5,193.5C 902.55,196.561 899.883,197.228 896.5,195.5C 895.548,193.955 895.215,192.288 895.5,190.5C 897.099,190.768 898.432,190.434 899.5,189.5 Z"/></g>
<g><path style="opacity:1" fill="#6960eb" d="M 763.5,191.5 C 767.338,191.007 769.338,192.674 769.5,196.5C 769.134,201.784 766.967,206.117 763,209.5C 759.875,203.249 760.042,197.249 763.5,191.5 Z"/></g>
<g><path style="opacity:1" fill="#8981ef" d="M 1021.5,179.5 C 1022.49,186.648 1022.82,193.981 1022.5,201.5C 1019.61,201.806 1016.95,201.473 1014.5,200.5C 1016.83,200.5 1019.17,200.5 1021.5,200.5C 1021.5,193.5 1021.5,186.5 1021.5,179.5 Z"/></g>
<g><path style="opacity:1" fill="#aea8f4" d="M 423.5,174.5 C 423.5,186.5 423.5,198.5 423.5,210.5C 425.833,210.5 428.167,210.5 430.5,210.5C 430.187,206.958 430.521,203.625 431.5,200.5C 431.5,204.167 431.5,207.833 431.5,211.5C 428.5,211.5 425.5,211.5 422.5,211.5C 422.171,198.989 422.505,186.655 423.5,174.5 Z"/></g>
<g><path style="opacity:1" fill="#aba7f4" d="M 1305.5,189.5 C 1305.5,193.5 1305.5,197.5 1305.5,201.5C 1302.61,201.806 1299.95,201.473 1297.5,200.5C 1299.83,200.5 1302.17,200.5 1304.5,200.5C 1304.19,196.629 1304.52,192.962 1305.5,189.5 Z"/></g>
<g><path style="opacity:1" fill="#b2adf5" d="M 168.5,201.5 C 166.94,203.156 165.94,205.156 165.5,207.5C 165.5,205.167 165.5,202.833 165.5,200.5C 166.791,200.263 167.791,200.596 168.5,201.5 Z"/></g>
<g><path style="opacity:1" fill="#958ef1" d="M 936.5,202.5 C 936.5,205.5 936.5,208.5 936.5,211.5C 933.615,211.806 930.948,211.473 928.5,210.5C 930.833,210.5 933.167,210.5 935.5,210.5C 935.194,207.615 935.527,204.948 936.5,202.5 Z"/></g>
</svg>
